<mxfile host="app.diagrams.net" modified="2022-06-14T10:15:34.659Z" agent="5.0 (X11)" etag="q4HiTE5rEoODfExbkj6-" version="20.0.1" type="github">
  <diagram id="6a731a19-8d31-9384-78a2-239565b7b9f0" name="Page-1">
    <mxGraphModel dx="1303" dy="1887" grid="1" gridSize="10" guides="1" tooltips="1" connect="1" arrows="1" fold="1" page="1" pageScale="1" pageWidth="1169" pageHeight="827" background="none" math="0" shadow="0">
      <root>
        <mxCell id="0" />
        <mxCell id="1" parent="0" />
        <mxCell id="MjFL4MH4IF4x361PRrN6-69" style="edgeStyle=orthogonalEdgeStyle;rounded=0;orthogonalLoop=1;jettySize=auto;html=1;exitX=1;exitY=0.5;exitDx=0;exitDy=0;" edge="1" parent="1" source="MjFL4MH4IF4x361PRrN6-59" target="MjFL4MH4IF4x361PRrN6-64">
          <mxGeometry relative="1" as="geometry" />
        </mxCell>
        <mxCell id="MjFL4MH4IF4x361PRrN6-75" value="yes" style="edgeLabel;html=1;align=center;verticalAlign=middle;resizable=0;points=[];" vertex="1" connectable="0" parent="MjFL4MH4IF4x361PRrN6-69">
          <mxGeometry x="-0.7997" y="-4" relative="1" as="geometry">
            <mxPoint y="-4" as="offset" />
          </mxGeometry>
        </mxCell>
        <mxCell id="MjFL4MH4IF4x361PRrN6-71" value="no" style="edgeStyle=orthogonalEdgeStyle;rounded=0;orthogonalLoop=1;jettySize=auto;html=1;exitX=0.5;exitY=1;exitDx=0;exitDy=0;entryX=0.5;entryY=0;entryDx=0;entryDy=0;" edge="1" parent="1" source="MjFL4MH4IF4x361PRrN6-59" target="MjFL4MH4IF4x361PRrN6-60">
          <mxGeometry relative="1" as="geometry" />
        </mxCell>
        <mxCell id="MjFL4MH4IF4x361PRrN6-59" value="Already authentificated?" style="rhombus;whiteSpace=wrap;html=1;" vertex="1" parent="1">
          <mxGeometry x="480" y="280" width="120" height="120" as="geometry" />
        </mxCell>
        <mxCell id="MjFL4MH4IF4x361PRrN6-76" style="edgeStyle=orthogonalEdgeStyle;rounded=0;orthogonalLoop=1;jettySize=auto;html=1;exitX=1;exitY=0.5;exitDx=0;exitDy=0;" edge="1" parent="1" source="MjFL4MH4IF4x361PRrN6-60" target="MjFL4MH4IF4x361PRrN6-64">
          <mxGeometry relative="1" as="geometry" />
        </mxCell>
        <mxCell id="MjFL4MH4IF4x361PRrN6-60" value="Authentification" style="rounded=0;whiteSpace=wrap;html=1;fillColor=#dae8fc;strokeColor=#6c8ebf;" vertex="1" parent="1">
          <mxGeometry x="480" y="440" width="120" height="60" as="geometry" />
        </mxCell>
        <mxCell id="MjFL4MH4IF4x361PRrN6-73" style="edgeStyle=orthogonalEdgeStyle;rounded=0;orthogonalLoop=1;jettySize=auto;html=1;exitX=0.5;exitY=1;exitDx=0;exitDy=0;entryX=0.5;entryY=0;entryDx=0;entryDy=0;" edge="1" parent="1" source="MjFL4MH4IF4x361PRrN6-62" target="MjFL4MH4IF4x361PRrN6-67">
          <mxGeometry relative="1" as="geometry" />
        </mxCell>
        <mxCell id="MjFL4MH4IF4x361PRrN6-62" value="Start" style="ellipse;whiteSpace=wrap;html=1;fillColor=#f8cecc;strokeColor=#b85450;" vertex="1" parent="1">
          <mxGeometry x="480" y="40" width="120" height="80" as="geometry" />
        </mxCell>
        <mxCell id="MjFL4MH4IF4x361PRrN6-77" style="edgeStyle=orthogonalEdgeStyle;rounded=0;orthogonalLoop=1;jettySize=auto;html=1;exitX=0;exitY=0.5;exitDx=0;exitDy=0;entryX=1;entryY=0.5;entryDx=0;entryDy=0;startArrow=classic;startFill=1;" edge="1" parent="1" source="MjFL4MH4IF4x361PRrN6-64" target="MjFL4MH4IF4x361PRrN6-65">
          <mxGeometry relative="1" as="geometry" />
        </mxCell>
        <mxCell id="MjFL4MH4IF4x361PRrN6-84" style="edgeStyle=orthogonalEdgeStyle;rounded=0;orthogonalLoop=1;jettySize=auto;html=1;exitX=0.5;exitY=1;exitDx=0;exitDy=0;startArrow=classic;startFill=1;" edge="1" parent="1" source="MjFL4MH4IF4x361PRrN6-64" target="MjFL4MH4IF4x361PRrN6-81">
          <mxGeometry relative="1" as="geometry" />
        </mxCell>
        <mxCell id="MjFL4MH4IF4x361PRrN6-64" value="&lt;div&gt;Profile&lt;/div&gt;" style="shape=hexagon;perimeter=hexagonPerimeter2;whiteSpace=wrap;html=1;fixedSize=1;fillColor=#fff2cc;strokeColor=#d6b656;" vertex="1" parent="1">
          <mxGeometry x="640" y="540" width="120" height="80" as="geometry" />
        </mxCell>
        <mxCell id="MjFL4MH4IF4x361PRrN6-86" style="edgeStyle=orthogonalEdgeStyle;rounded=0;orthogonalLoop=1;jettySize=auto;html=1;exitX=0.5;exitY=1;exitDx=0;exitDy=0;entryX=0.5;entryY=0;entryDx=0;entryDy=0;startArrow=classic;startFill=1;" edge="1" parent="1" source="MjFL4MH4IF4x361PRrN6-65" target="MjFL4MH4IF4x361PRrN6-66">
          <mxGeometry relative="1" as="geometry">
            <Array as="points">
              <mxPoint x="380" y="690" />
              <mxPoint x="380" y="690" />
            </Array>
          </mxGeometry>
        </mxCell>
        <mxCell id="MjFL4MH4IF4x361PRrN6-65" value="&lt;div&gt;Chat&lt;/div&gt;" style="shape=hexagon;perimeter=hexagonPerimeter2;whiteSpace=wrap;html=1;fixedSize=1;fillColor=#fff2cc;strokeColor=#d6b656;" vertex="1" parent="1">
          <mxGeometry x="320" y="540" width="120" height="80" as="geometry" />
        </mxCell>
        <mxCell id="MjFL4MH4IF4x361PRrN6-83" style="edgeStyle=orthogonalEdgeStyle;rounded=0;orthogonalLoop=1;jettySize=auto;html=1;exitX=1;exitY=0.5;exitDx=0;exitDy=0;entryX=0;entryY=0.5;entryDx=0;entryDy=0;startArrow=classic;startFill=1;" edge="1" parent="1" source="MjFL4MH4IF4x361PRrN6-66" target="MjFL4MH4IF4x361PRrN6-81">
          <mxGeometry relative="1" as="geometry" />
        </mxCell>
        <mxCell id="MjFL4MH4IF4x361PRrN6-66" value="&lt;div&gt;Game&lt;/div&gt;" style="shape=hexagon;perimeter=hexagonPerimeter2;whiteSpace=wrap;html=1;fixedSize=1;fillColor=#fff2cc;strokeColor=#d6b656;" vertex="1" parent="1">
          <mxGeometry x="320" y="720" width="120" height="80" as="geometry" />
        </mxCell>
        <mxCell id="MjFL4MH4IF4x361PRrN6-74" style="edgeStyle=orthogonalEdgeStyle;rounded=0;orthogonalLoop=1;jettySize=auto;html=1;exitX=0.5;exitY=1;exitDx=0;exitDy=0;entryX=0.5;entryY=0;entryDx=0;entryDy=0;" edge="1" parent="1" source="MjFL4MH4IF4x361PRrN6-67" target="MjFL4MH4IF4x361PRrN6-59">
          <mxGeometry relative="1" as="geometry" />
        </mxCell>
        <mxCell id="MjFL4MH4IF4x361PRrN6-92" value="" style="edgeStyle=orthogonalEdgeStyle;rounded=0;orthogonalLoop=1;jettySize=auto;html=1;startArrow=classic;startFill=1;" edge="1" parent="1" source="MjFL4MH4IF4x361PRrN6-67" target="MjFL4MH4IF4x361PRrN6-59">
          <mxGeometry relative="1" as="geometry" />
        </mxCell>
        <mxCell id="MjFL4MH4IF4x361PRrN6-67" value="&lt;div&gt;&lt;a href=&quot;https://github.com/fyusuf-a/ft_transcendence/wiki/page-about&quot;&gt;About&lt;/a&gt;&lt;/div&gt;" style="shape=hexagon;perimeter=hexagonPerimeter2;whiteSpace=wrap;html=1;fixedSize=1;fillColor=#fff2cc;strokeColor=#d6b656;" vertex="1" parent="1">
          <mxGeometry x="480" y="160" width="120" height="80" as="geometry" />
        </mxCell>
        <mxCell id="MjFL4MH4IF4x361PRrN6-91" style="edgeStyle=orthogonalEdgeStyle;rounded=0;orthogonalLoop=1;jettySize=auto;html=1;exitX=0.5;exitY=0;exitDx=0;exitDy=0;entryX=0.5;entryY=1;entryDx=0;entryDy=0;startArrow=classic;startFill=1;" edge="1" parent="1" source="MjFL4MH4IF4x361PRrN6-81" target="MjFL4MH4IF4x361PRrN6-65">
          <mxGeometry relative="1" as="geometry" />
        </mxCell>
        <mxCell id="MjFL4MH4IF4x361PRrN6-81" value="&lt;div&gt;About&lt;/div&gt;" style="shape=hexagon;perimeter=hexagonPerimeter2;whiteSpace=wrap;html=1;fixedSize=1;fillColor=#fff2cc;strokeColor=#d6b656;" vertex="1" parent="1">
          <mxGeometry x="640" y="720" width="120" height="80" as="geometry" />
        </mxCell>
      </root>
    </mxGraphModel>
  </diagram>
</mxfile>
